<?xml version="1.0" encoding="utf-8"?>
<!-- Generator: Adobe Illustrator 19.2.0, SVG Export Plug-In . SVG Version: 6.00 Build 0)  -->
<svg version="1.1" id="Layer_1" xmlns="http://www.w3.org/2000/svg" xmlns:xlink="http://www.w3.org/1999/xlink" x="0px" y="0px"
	 viewBox="0 0 705.3 650.1" style="enable-background:new 0 0 705.3 650.1;" xml:space="preserve">
<style type="text/css">
	.st0{fill:#FFFFFF;}
	.st1{fill:url(#SVGID_1_);}
	.st2{fill:url(#SVGID_2_);}
	.st3{fill:url(#SVGID_3_);}
	.st4{fill:url(#SVGID_4_);}
	.st5{fill:url(#SVGID_5_);}
	.st6{fill:url(#SVGID_6_);}
	.st7{fill:url(#SVGID_7_);}
	.st8{fill:url(#SVGID_8_);}
	.st9{fill:url(#SVGID_9_);}
	.st10{fill:url(#SVGID_10_);}
	.st11{fill:url(#SVGID_11_);}
	.st12{fill:url(#SVGID_12_);}
	.st13{fill:url(#SVGID_13_);}
	.st14{fill:url(#SVGID_14_);}
	.st15{fill:url(#SVGID_15_);}
	.st16{fill:url(#SVGID_16_);}
	.st17{fill:url(#SVGID_17_);}
	.st18{fill:url(#SVGID_18_);}
	.st19{fill:url(#SVGID_19_);}
	.st20{fill:url(#SVGID_20_);}
	.st21{fill:url(#SVGID_21_);}
	.st22{fill:url(#SVGID_22_);}
	.st23{fill:url(#SVGID_23_);}
	.st24{fill:url(#SVGID_24_);}
	.st25{fill:url(#SVGID_25_);}
	.st26{fill:url(#SVGID_26_);}
	.st27{fill:url(#SVGID_27_);}
	.st28{fill:url(#SVGID_28_);}
	.st29{fill:url(#SVGID_29_);}
	.st30{fill:url(#SVGID_30_);}
	.st31{fill:url(#SVGID_31_);}
	.st32{fill:url(#SVGID_32_);}
	.st33{fill:url(#SVGID_33_);}
	.st34{fill:url(#SVGID_34_);}
	.st35{fill:url(#SVGID_35_);}
	.st36{fill:url(#SVGID_36_);}
	.st37{fill:url(#SVGID_37_);}
	.st38{fill:url(#SVGID_38_);}
	.st39{fill:url(#SVGID_39_);}
	.st40{fill:url(#SVGID_40_);}
	.st41{fill:url(#SVGID_41_);}
	.st42{fill:url(#SVGID_42_);}
	.st43{fill:url(#SVGID_43_);}
	.st44{fill:url(#SVGID_44_);}
	.st45{fill:url(#SVGID_45_);}
	.st46{fill:url(#SVGID_46_);}
	.st47{fill:url(#SVGID_47_);}
	.st48{fill:url(#SVGID_48_);}
	.st49{fill:url(#SVGID_49_);}
	.st50{fill:url(#SVGID_50_);}
	.st51{fill:url(#SVGID_51_);}
	.st52{fill:url(#SVGID_52_);}
	.st53{fill:url(#SVGID_53_);}
	.st54{fill:url(#SVGID_54_);}
	.st55{fill:url(#SVGID_55_);}
	.st56{fill:url(#SVGID_56_);}
	.st57{fill:url(#SVGID_57_);}
	.st58{fill:url(#SVGID_58_);}
	.st59{fill:url(#SVGID_59_);}
	.st60{fill:url(#SVGID_60_);}
	.st61{fill:url(#SVGID_61_);}
	.st62{fill:url(#SVGID_62_);}
	.st63{fill:url(#SVGID_63_);}
	.st64{fill:url(#SVGID_64_);}
	.st65{fill:url(#SVGID_65_);}
	.st66{fill:url(#SVGID_66_);}
	.st67{fill:url(#SVGID_67_);}
	.st68{fill:url(#SVGID_68_);}
	.st69{fill:url(#SVGID_69_);}
	.st70{fill:url(#SVGID_70_);}
	.st71{fill:url(#SVGID_71_);}
	.st72{fill:url(#SVGID_72_);}
	.st73{fill:url(#SVGID_73_);}
	.st74{fill:url(#SVGID_74_);}
	.st75{fill:url(#SVGID_75_);}
	.st76{fill:url(#SVGID_76_);}
	.st77{fill:url(#SVGID_77_);}
	.st78{fill:url(#SVGID_78_);}
	.st79{fill:url(#SVGID_79_);}
	.st80{fill:url(#SVGID_80_);}
	.st81{fill:url(#SVGID_81_);}
	.st82{fill:url(#SVGID_82_);}
	.st83{fill:url(#SVGID_83_);}
	.st84{fill:url(#SVGID_84_);}
	.st85{fill:url(#SVGID_85_);}
	.st86{fill:url(#SVGID_86_);}
	.st87{fill:url(#SVGID_87_);}
	.st88{fill:url(#SVGID_88_);}
	.st89{fill:url(#SVGID_89_);}
	.st90{fill:url(#SVGID_90_);}
	.st91{fill:url(#SVGID_91_);}
	.st92{fill:url(#SVGID_92_);}
	.st93{fill:url(#SVGID_93_);}
	.st94{fill:url(#SVGID_94_);}
	.st95{fill:url(#SVGID_95_);}
	.st96{fill:url(#SVGID_96_);}
	.st97{fill:url(#SVGID_97_);}
	.st98{fill:url(#SVGID_98_);}
	.st99{fill:url(#SVGID_99_);}
	.st100{fill:url(#SVGID_100_);}
	.st101{fill:url(#SVGID_101_);}
	.st102{fill:url(#SVGID_102_);}
	.st103{fill:url(#SVGID_103_);}
	.st104{fill:url(#SVGID_104_);}
	.st105{fill:url(#SVGID_105_);}
	.st106{fill:url(#SVGID_106_);}
	.st107{fill:url(#SVGID_107_);}
	.st108{fill:url(#SVGID_108_);}
	.st109{fill:url(#SVGID_109_);}
	.st110{fill:url(#SVGID_110_);}
	.st111{fill:url(#SVGID_111_);}
	.st112{fill:url(#SVGID_112_);}
	.st113{fill:url(#SVGID_113_);}
	.st114{fill:url(#SVGID_114_);}
	.st115{fill:url(#SVGID_115_);}
	.st116{fill:url(#SVGID_116_);}
	.st117{fill:url(#SVGID_117_);}
	.st118{fill:url(#SVGID_118_);}
	.st119{fill:url(#SVGID_119_);}
	.st120{fill:url(#SVGID_120_);}
	.st121{fill:url(#SVGID_121_);}
	.st122{fill:url(#SVGID_122_);}
	.st123{fill:url(#SVGID_123_);}
	.st124{fill:url(#SVGID_124_);}
	.st125{fill:url(#SVGID_125_);}
	.st126{fill:url(#SVGID_126_);}
	.st127{fill:url(#SVGID_127_);}
	.st128{fill:url(#SVGID_128_);}
	.st129{fill:url(#SVGID_129_);}
	.st130{fill:url(#SVGID_130_);}
	.st131{fill:url(#SVGID_131_);}
	.st132{fill:url(#SVGID_132_);}
	.st133{fill:url(#SVGID_133_);}
	.st134{fill:url(#SVGID_134_);}
	.st135{fill:url(#SVGID_135_);}
	.st136{fill:url(#SVGID_136_);}
	.st137{fill:url(#SVGID_137_);}
	.st138{fill:url(#SVGID_138_);}
	.st139{fill:url(#SVGID_139_);}
	.st140{fill:url(#SVGID_140_);}
	.st141{fill:url(#SVGID_141_);}
	.st142{fill:url(#SVGID_142_);}
	.st143{fill:url(#SVGID_143_);}
	.st144{fill:url(#SVGID_144_);}
	.st145{fill:url(#SVGID_145_);}
	.st146{fill:url(#SVGID_146_);}
	.st147{fill:url(#SVGID_147_);}
	.st148{fill:url(#SVGID_148_);}
	.st149{fill:url(#SVGID_149_);}
	.st150{fill:url(#SVGID_150_);}
	.st151{fill:url(#SVGID_151_);}
	.st152{fill:url(#SVGID_152_);}
	.st153{fill:url(#SVGID_153_);}
	.st154{fill:url(#SVGID_154_);}
	.st155{fill:url(#SVGID_155_);}
	.st156{fill:url(#SVGID_156_);}
	.st157{fill:url(#SVGID_157_);}
	.st158{fill:url(#SVGID_158_);}
	.st159{fill:url(#SVGID_159_);}
	.st160{fill:url(#SVGID_160_);}
	.st161{fill:url(#SVGID_161_);}
	.st162{fill:url(#SVGID_162_);}
	.st163{fill:url(#SVGID_163_);}
</style>
<linearGradient id="SVGID_1_" gradientUnits="userSpaceOnUse" x1="0" y1="325.0506" x2="705.2739" y2="325.0506">
	<stop  offset="0" style="stop-color:#00E39F"/>
	<stop  offset="8.315786e-002" style="stop-color:#01DDA4"/>
	<stop  offset="0.1893" style="stop-color:#05CEB1"/>
	<stop  offset="0.3078" style="stop-color:#0AB3C7"/>
	<stop  offset="0.4345" style="stop-color:#128FE6"/>
	<stop  offset="0.5215" style="stop-color:#1872FF"/>
	<stop  offset="1" style="stop-color:#131AA3"/>
</linearGradient>
<rect class="st1" width="705.3" height="650.1"/>
<g>
	<g>
		<path class="st0" d="M240.3,232.7c-5.2,13.1-21.7,19-26.4,9.5c-4.3-8.8,5.9-25.2,19-25.9C242.3,216.8,242.9,226.3,240.3,232.7"/>
		<path class="st0" d="M222.7,196.1c-4.3,9.3-16.7,13-19.7,5.8c-2.8-6.6,5.5-18.2,15-18.2C224.9,184.5,224.9,191.5,222.7,196.1"/>
		<path class="st0" d="M289.3,225.7c-3.5,13.7-22.7,19.3-29,8.4c-5.2-9,3.3-24.1,17.2-24.8C288.3,209.8,291,219.2,289.3,225.7"/>
		<path class="st0" d="M268.3,186c-5.2,10.6-21.9,11.8-25.2,1.8c-2.7-8.3,6.9-19.2,18.3-17.3C270.3,172.8,270.8,181,268.3,186"/>
		<path class="st0" d="M348.1,222.2c-1.3,14.9-22.8,20.9-32.4,9c-7.8-9.7-0.9-26,15.1-26.7C343.8,205.1,348.7,215.2,348.1,222.2"/>
		<path class="st0" d="M319.7,177.2c-1.2,13.1-20.1,18.4-28.5,7.9c-6.8-8.5-0.8-22.8,13.3-23.5C315.9,162.2,320.3,171.1,319.7,177.2
			"/>
		<path class="st0" d="M301.5,135.2c2.9,8.2-11.1,19-21.1,16.3c-8.1-2.2-7.3-13.1,4.1-19.3C294,127.8,300.2,131.3,301.5,135.2"/>
		<path class="st0" d="M365.6,130.6c-0.3,9.4,17.5,16,26.8,10.1c7.6-4.9,3.4-15.8-10.2-18.5C371,120.7,365.7,126.2,365.6,130.6"/>
		<path class="st0" d="M352.5,133.5c-1.3,9.7-20.8,13.3-29.4,5.5c-7-6.3-0.7-16.9,13.8-17.2C348.7,122.4,353.1,129,352.5,133.5"/>
		<path class="st0" d="M414.7,162.3c12,5.4,11.5,21.9-0.7,24.9c-9.9,2.4-21.6-7.2-18.2-18.4C399.5,160.1,409.1,159.8,414.7,162.3"/>
		<path class="st0" d="M402.4,221.4c1.2,13.7-16.1,19.9-27.7,9.9c-10.7-9.3-6.5-25.8,6.9-27.1c0.5-0.1,1.1-0.1,1.6-0.1
			C395.5,204.8,401.8,214.6,402.4,221.4"/>
		<path class="st0" d="M375.8,173.2c1.3,13-17.1,18.9-29.4,9.4c-11.4-8.8-6.9-24.4,7.4-25.6c0.5,0,1.2,0,1.7-0.1
			C368.4,157.5,375.2,166.8,375.8,173.2"/>
		<path class="st0" d="M457.1,222.8c1.1,13.2-15.5,19.2-26.6,9.6c-10.3-9-6.3-24.8,6.7-26c0.5,0,1.1-0.1,1.5-0.1
			C450.5,206.7,456.5,216.2,457.1,222.8"/>
		<path class="st0" d="M506,226.9c1,12-14.1,17.4-24.1,8.7c-9.3-8.1-5.7-22.5,6-23.6c0.4,0,1-0.1,1.4-0.1
			C500,212.3,505.5,220.9,506,226.9"/>
		<path class="st0" d="M157.2,253.5c-6,9.9-14.8,15-15.9,9.4c-1.3-6.3,9.7-22.3,17.4-23C163.3,240.4,160.2,248.5,157.2,253.5"/>
		<path class="st0" d="M194.1,241.6c-6.2,12-19.2,17.9-22.2,10.1c-3-8,8.3-25.1,19.5-25.8C199,226.4,197.1,235.8,194.1,241.6"/>
		<path class="st0" d="M469.3,180.2c4,9-1.9,14.9-11.2,11.2c-12.1-4.8-19.3-21.4-10.7-25c1.1-0.4,2.2-0.5,3-0.6
			C459.4,166.4,466.9,174.6,469.3,180.2"/>
		<path class="st0" d="M513,188.1c3.6,8.1-1.7,13.4-10,10.1c-10.9-4.3-17.3-19.2-9.6-22.4c0.9-0.4,1.9-0.4,2.7-0.5
			C504,175.7,510.8,183,513,188.1"/>
		<path class="st0" d="M439.3,138.7c6.5,6,3.8,12.9-5.2,13.2c-11.7,0.4-23.5-10.7-17.8-16.8c0.7-0.7,1.6-1.2,2.3-1.5
			C426.1,130.9,435.2,134.9,439.3,138.7"/>
		<path class="st0" d="M236.4,344.1c-2.2,15.1-19.2,21.8-28,11c-8.7-10.6-2.6-29.8,13.2-30.7C233.6,325.2,237.5,336.4,236.4,344.1"
			/>
		<path class="st0" d="M292.3,340.5c-2.1,17.3-22.9,23.9-32.8,10.4c-8.5-11.7-1.9-30.6,15.2-31.5
			C288.5,320.2,293.3,332.2,292.3,340.5"/>
		<path class="st0" d="M346,340.5c-1.8,17.4-24.2,24-35.4,10.4c-9.6-11.7-2.9-30.6,15.5-31.5C340.3,320.1,347,330.8,346,340.5"/>
		<path class="st0" d="M403.9,338.1c-1.2,17.1-22.4,23.7-33.4,10.4c-9.6-11.7-3.8-30.6,14.1-31.5
			C399.6,317.7,404.4,330.3,403.9,338.1"/>
		<path class="st0" d="M462.3,338.1c-0.6,16.2-19,23.4-30.3,11.8c-11.1-11.4-6.5-32,11.3-32.9C456.9,317.7,462.6,329.7,462.3,338.1"
			/>
		<path class="st0" d="M142.6,348.3c-2.2,11.8-11.4,18.5-17.6,12.8c-8-7.3-3.4-29.7,9-30.7C142.6,331.1,143.8,341.7,142.6,348.3"/>
		<path class="st0" d="M184.3,345.6c-2.2,13.2-15.2,19.8-22.6,11.3c-7.9-9.1-2.5-28.6,11.1-29.4C183.3,328.2,185.4,339,184.3,345.6"
			/>
		<path class="st0" d="M512.3,336.2c0,14.1-14.2,21.1-24.5,12c-11-9.7-8.4-30.4,7.4-31.3C507,317.6,512.3,328.6,512.3,336.2"/>
		<path class="st0" d="M553.2,337.4c0,13.1-13.2,19.6-22.7,11.1c-10.2-9-7.8-28.2,6.9-29.1C548.3,320.1,553.2,330.3,553.2,337.4"/>
		<path class="st0" d="M184.8,206.2c-7.2,8.2-15,12.2-15.2,9.1c-0.3-4.8,15.3-20.8,20.9-21.5C193.7,194.3,184.9,206.1,184.8,206.2"
			/>
		<path class="st0" d="M250.2,158.3c-7.6,8.8-18.8,10.3-18.8,4.3c0-6.2,11.8-15.3,19.5-15C256.3,148.6,253.4,154.7,250.2,158.3"/>
		<path class="st0" d="M264.9,401.8c-0.7,15.7-17.7,22.6-28.4,11.5c-10.7-11.1-6.7-31.9,10.1-32.8
			C259.8,381.2,265.2,393.4,264.9,401.8"/>
		<path class="st0" d="M320.9,401.8c-1.5,16.6-22.4,23-33.3,10.1c-9.8-11.4-4-30.6,13.7-31.5C316.1,381.2,321.7,393.4,320.9,401.8"
			/>
		<path class="st0" d="M381.4,401.8c-2.2,17.4-25.6,23-35.8,8.7c-8.3-11.6-1.1-29.1,16.6-30C377.3,381.2,382.5,393.4,381.4,401.8"/>
		<path class="st0" d="M438.8,401.6c-2.6,16.9-22.4,23.1-32.1,10.1c-8.6-11.4-1.7-30.6,15.3-31.5C435.7,381,440.1,393.2,438.8,401.6
			"/>
		<path class="st0" d="M494,397.1c-2.9,15.7-20.6,22.5-29.7,11.5c-9.1-11.1-2.1-31.9,14.6-32.8C491.8,376.5,495.5,388.7,494,397.1"
			/>
		<path class="st0" d="M164.8,401.5c0.7,11.9-9,18.1-18,11.5c-10.9-8-11.2-28.5,2.7-29.4C159.3,384.2,164.4,394.4,164.8,401.5"/>
		<path class="st0" d="M211.5,401.8c0,14.9-12.8,22.1-22.6,12.7c-10.9-10.5-9-33,6.2-34C206.3,381.2,211.4,393.4,211.5,401.8"/>
		<path class="st0" d="M535.5,394.7c-2.9,13.3-16.3,19.8-23.6,11.3c-8.1-9.4-2-29.4,12.3-30.4C534.7,376.4,537.1,387.2,535.5,394.7"
			/>
		<path class="st0" d="M572,390.9c-2.3,11.7-13.1,17.4-19,10c-6.5-8.3-1.6-25.9,9.9-26.7C571.3,374.7,573.3,384.3,572,390.9"/>
		<path class="st0" d="M264.1,283.9c-3.5,15.9-23.2,22.1-30.5,9.5c-6.1-10.4,2.2-27.9,17.2-28.7
			C262.7,265.4,265.7,276.4,264.1,283.9"/>
		<path class="st0" d="M318.1,278.4c-2.3,16-23.5,22.1-32.9,9.5c-7.7-10.4-0.4-27.9,16-28.7C314.7,259.9,319.2,270.8,318.1,278.4"/>
		<path class="st0" d="M376.5,276.8c-0.8,15.7-21.9,21.9-32.9,9.5c-9.2-10.4-3.2-27.9,13.9-28.7
			C371.2,258.3,376.8,269.3,376.5,276.8"/>
		<path class="st0" d="M434,276.8c0.7,14.9-16.6,21.5-28,10.8c-10.8-10.1-7.5-29.1,8.8-29.9C427.4,258.3,433.6,269.3,434,276.8"/>
		<path class="st0" d="M488.4,278.4c2,13.4-10.8,20.7-22.9,13c-14.4-9.2-14-30.4,0.7-32.1c0.5,0,1.1,0,1.6-0.1
			C480.1,260,487.2,270.9,488.4,278.4"/>
		<path class="st0" d="M165.5,294.4c-4.8,12.4-17.2,18.4-21.4,10.4c-4.3-8.4,4.8-26.2,16.2-27C168.6,278.4,167.9,288.3,165.5,294.4"
			/>
		<path class="st0" d="M212,287.6c-4.2,13.2-20,19.2-25.6,9.6c-5.3-9,3.3-25.9,16.5-26.7C212.7,271.2,214.2,280.9,212,287.6"/>
		<path class="st0" d="M534.3,283.1c3,12-5.3,19-15.5,13.1c-13.4-7.7-16.5-29.4-4.5-31c0.4,0,0.9-0.1,1.3-0.1
			C525.6,265.8,532.6,276,534.3,283.1"/>
		<path class="st0" d="M437.7,514.2c-5.2,13.4-22.7,17.6-27.9,6.7c-4.4-9.3,3.5-22.9,17.3-23.6C438.7,497.9,440.3,507.6,437.7,514.2
			"/>
		<path class="st0" d="M240.2,461.5c1.3,13.5-10.8,19.9-21.6,11.5c-12.7-9.9-12-29.3,1.1-30.9c0.5-0.1,1.1-0.1,1.5-0.1
			C233.1,442.7,239.4,453.8,240.2,461.5"/>
		<path class="st0" d="M352.9,463.3c-1.9,15.7-23.4,20.8-33.3,7.8c-8.2-10.7-2.5-26.5,14.4-27.3
			C348.6,444.5,353.8,455.6,352.9,463.3"/>
		<path class="st0" d="M410.9,461.5c-3.4,15.9-24.1,20.9-32.5,7.8c-6.8-10.6,0.7-26.5,16.7-27.3
			C408.7,442.8,412.6,453.9,410.9,461.5"/>
		<path class="st0" d="M463.2,458.9c-4.5,15.1-22.3,20.7-29.3,9.1c-6.2-10.3,2-27.8,17.1-28.6C463.3,440.2,465.5,451.2,463.2,458.9"
			/>
		<path class="st0" d="M190.9,458.5c2.4,10.2-4.8,16-14,11.2c-12.4-6.4-16.6-24.6-6.3-27.4c0.7-0.2,1.7-0.3,2.4-0.3
			C182.9,442.6,189.4,452,190.9,458.5"/>
		<path class="st0" d="M546.3,230.2c5.1,8.1,3.1,13.8-4.3,12.2c-12-2.7-25.6-22-18.5-26c0.8-0.5,1.7-0.5,2.5-0.6
			C533.9,216.3,542.6,224.5,546.3,230.2"/>
		<path class="st0" d="M584.7,338.8c0.4,10.5-6.4,16.7-12.7,11.6c-8.2-6.6-8.5-26.8,1.8-27.6C581,323.3,584.5,332.5,584.7,338.8"/>
		<path class="st0" d="M572,278.8c4,9.7-0.2,17.8-7.8,15.3c-10-3.3-17.4-22.2-8-26.5C563.1,265.6,569.6,273,572,278.8"/>
		<path class="st0" d="M567.7,439.6c-5,9.2-13.1,12.8-15.3,6.9c-3.1-8,6.9-26.1,15.4-24.2C573,424.6,570.9,433.8,567.7,439.6"/>
		<path class="st0" d="M539.2,448c-5.3,9.2-15.6,12.6-19.7,6.4c-5.5-8.3,4.9-26.6,16.9-24.2C543.9,432.8,542.6,442.2,539.2,448"/>
		<path class="st0" d="M540.3,487.7c-6.1,7.1-13.8,8.8-14.7,3.2c-1.2-7.5,10.9-21.5,17.9-18.3C547.7,475.6,544.1,483.3,540.3,487.7"
			/>
		
			<rect x="292.2" y="131.8" transform="matrix(0.9887 -0.1498 0.1498 0.9887 -16.7533 48.2604)" class="st0" width="39.7" height="7.1"/>
		<polygon class="st0" points="306.6,177.3 301.2,172.7 332.9,130.4 339.9,132.7 		"/>
		<polygon class="st0" points="301.1,179.2 284,142.6 289.7,138.5 306.9,175.1 		"/>
		
			<rect x="186.8" y="243.8" transform="matrix(0.9564 -0.292 0.292 0.9564 -69.2357 67.1555)" class="st0" width="7.1" height="43.4"/>
		
			<rect x="204.3" y="280.8" transform="matrix(0.9957 -9.254514e-002 9.254514e-002 0.9957 -25.353 22.0309)" class="st0" width="41.2" height="7.1"/>
		<polygon class="st0" points="177.3,340.2 170.8,337.4 189.6,293.3 196.2,296 		"/>
		<polygon class="st0" points="148.9,401.9 125.3,346.8 132,344.5 155.6,399.6 		"/>
		<polygon class="st0" points="413.8,272.5 382.6,223.5 388.5,219.7 419.8,268.7 		"/>
		
			<rect x="367.9" y="305.8" transform="matrix(0.4295 -0.9031 0.9031 0.4295 -52.4879 535.6547)" class="st0" width="59.6" height="7.1"/>
		<rect x="441" y="136.6" transform="matrix(0.7574 -0.653 0.653 0.7574 1.6217 329.7539)" class="st0" width="7.1" height="52.3"/>
		<polygon class="st0" points="519.9,283.7 489.8,228.5 495.2,223.8 525.2,279 		"/>
		
			<rect x="524.2" y="277.8" transform="matrix(0.9998 -2.170349e-002 2.170349e-002 0.9998 -5.9782 11.8609)" class="st0" width="38.5" height="7.1"/>
		
			<rect x="528" y="305.5" transform="matrix(0.3181 -0.9481 0.9481 0.3181 83.2958 733.9283)" class="st0" width="47.7" height="7.1"/>
		<rect x="544.3" y="333.9" class="st0" width="28.6" height="7.1"/>
		<rect x="389.2" y="331.1" class="st0" width="56.3" height="7.1"/>
		
			<rect x="407.9" y="365.9" transform="matrix(0.4545 -0.8907 0.8907 0.4545 -91.1009 590.1876)" class="st0" width="57" height="7.1"/>
		
			<rect x="345.3" y="340.3" transform="matrix(0.8696 -0.4938 0.4938 0.8696 -136.9427 220.4406)" class="st0" width="7.1" height="58.3"/>
		
			<rect x="207.2" y="428.2" transform="matrix(0.4193 -0.9078 0.9078 0.4193 -254.0082 466.4344)" class="st0" width="60.8" height="7.1"/>
		<polygon class="st0" points="245.9,403 245.5,395.9 300.1,396.1 300.4,403.2 		"/>
		<rect x="313.4" y="397.2" class="st0" width="39.6" height="7.1"/>
		
			<rect x="533.7" y="435.4" transform="matrix(0.9777 -0.2098 0.2098 0.9777 -79.8889 124.9139)" class="st0" width="30" height="7.1"/>
		
			<rect x="529.2" y="449.2" transform="matrix(0.9869 -0.1613 0.1613 0.9869 -68.2459 92.0426)" class="st0" width="7.1" height="34.3"/>
	</g>
</g>
</svg>
