<?xml version="1.0" encoding="utf-8"?>
<!-- Generator: Adobe Illustrator 19.2.0, SVG Export Plug-In . SVG Version: 6.00 Build 0)  -->
<svg version="1.1" id="Layer_1" xmlns="http://www.w3.org/2000/svg" xmlns:xlink="http://www.w3.org/1999/xlink" x="0px" y="0px"
	 viewBox="0 0 711.3 238.8" style="enable-background:new 0 0 711.3 238.8;" xml:space="preserve">
<style type="text/css">
	.st0{fill:#FFFFFF;}
	.st1{fill:url(#SVGID_1_);}
	.st2{fill:url(#SVGID_2_);}
	.st3{fill:url(#SVGID_3_);}
	.st4{fill:url(#SVGID_4_);}
	.st5{fill:url(#SVGID_5_);}
	.st6{fill:url(#SVGID_6_);}
	.st7{fill:url(#SVGID_7_);}
	.st8{fill:url(#SVGID_8_);}
	.st9{fill:url(#SVGID_9_);}
	.st10{fill:url(#SVGID_10_);}
	.st11{fill:url(#SVGID_11_);}
	.st12{fill:url(#SVGID_12_);}
	.st13{fill:url(#SVGID_13_);}
	.st14{fill:url(#SVGID_14_);}
	.st15{fill:url(#SVGID_15_);}
	.st16{fill:url(#SVGID_16_);}
	.st17{fill:url(#SVGID_17_);}
</style>
<linearGradient id="SVGID_1_" gradientUnits="userSpaceOnUse" x1="0" y1="119.3795" x2="711.306" y2="119.3795">
	<stop  offset="0" style="stop-color:#00E39F"/>
	<stop  offset="8.315786e-002" style="stop-color:#01DDA4"/>
	<stop  offset="0.1893" style="stop-color:#05CEB1"/>
	<stop  offset="0.3078" style="stop-color:#0AB3C7"/>
	<stop  offset="0.4345" style="stop-color:#128FE6"/>
	<stop  offset="0.5215" style="stop-color:#1872FF"/>
	<stop  offset="1" style="stop-color:#131AA3"/>
</linearGradient>
<rect class="st1" width="711.3" height="238.8"/>
<g>
	<g>
		<g>
			<path class="st0" d="M136.8,80.5v15.3h-25.5V168H95.8V95.8H70.3V80.5H136.8z"/>
			<path class="st0" d="M195,99.6c8.1,0,14,1.8,17.6,5.5c3.6,3.7,5.4,8.8,5.4,15.5c0,6.3-1.8,11.2-5.3,14.6
				c-3.5,3.4-9.5,5.1-17.9,5.1h-32.5v4.9c0,2.8,0.8,5,2.4,6.8c1.6,1.8,4.3,2.7,8.1,2.7h41.9V168h-41.9c-4.3,0-8-0.6-11-1.7
				c-3-1.1-5.4-2.7-7.4-4.7c-1.9-2-3.3-4.4-4.2-7.1c-0.9-2.7-1.3-5.7-1.3-9v-23.3c0-3.2,0.4-6.2,1.3-8.9c0.9-2.8,2.3-5.2,4.2-7.2
				c1.9-2,4.4-3.6,7.4-4.7c3-1.1,6.6-1.7,11-1.7H195z M162.3,129.5h32.1c3.7,0,6.3-0.7,7.8-2.2c1.5-1.5,2.3-3.5,2.3-6
				c0-2.6-0.8-4.7-2.3-6.2c-1.6-1.6-4-2.3-7.4-2.3h-22c-3.8,0-6.5,0.9-8.1,2.7c-1.6,1.8-2.4,4.1-2.4,6.7V129.5z"/>
			<path class="st0" d="M281.4,99.6v13.2h-24.1c-5.9,0-8.8,2.9-8.8,8.8V168h-13.7v-48.5c0-6.9,1.4-12,4.2-15.2
				c2.8-3.2,7.6-4.8,14.3-4.8H281.4z"/>
			<path class="st0" d="M341.4,99.6v13.2h-24.1c-5.9,0-8.8,2.9-8.8,8.8V168h-13.7v-48.5c0-6.9,1.4-12,4.2-15.2
				c2.8-3.2,7.6-4.8,14.3-4.8H341.4z"/>
			<path class="st0" d="M398.7,99.6c4.2,0,7.9,0.6,10.9,1.7c3,1.1,5.5,2.7,7.5,4.7c1.9,2,3.3,4.4,4.2,7.2c0.9,2.8,1.3,5.7,1.3,8.9
				v32.1c0,2.5-0.2,4.6-0.6,6.4c-0.4,1.7-1.1,3.1-2.1,4.2c-1,1.1-2.5,1.9-4.3,2.4c-1.9,0.5-4.2,0.8-7.1,0.8h-32
				c-8.1,0-14-1.9-17.6-5.6c-3.6-3.7-5.4-8.8-5.4-15.3c0-3.1,0.4-5.9,1.2-8.3c0.8-2.4,2.1-4.5,4-6.2c1.8-1.7,4.2-3,7.1-3.9
				c2.9-0.9,6.5-1.4,10.8-1.4h32.5v-5.2c0-2.7-0.8-4.9-2.4-6.7c-1.6-1.8-4.3-2.7-8.1-2.7h-41V99.6H398.7z M405.4,154.7
				c2.5,0,3.8-1.2,3.8-3.5v-12.8h-32.3c-3.6,0-6.2,0.7-7.6,2.1c-1.5,1.4-2.2,3.4-2.2,5.9c0,2.5,0.7,4.5,2.2,6
				c1.5,1.5,3.9,2.3,7.4,2.3H405.4z"/>
			<path class="st0" d="M488.6,80.5c5.2,0,9.6,0.6,13.3,1.8c3.7,1.2,6.7,2.8,9.1,4.9c2.4,2.1,4.1,4.6,5.3,7.6
				c1.1,2.9,1.7,6.2,1.7,9.7c0,5.1-1.1,9.2-3.2,12.3c-2.1,3.1-5.3,5.5-9.4,7.1c4.1,1.7,7.3,4.2,9.6,7.5c2.2,3.2,3.4,7.4,3.4,12.5
				c0,3.5-0.6,6.8-1.7,9.7c-1.1,2.9-2.9,5.5-5.3,7.6c-2.4,2.1-5.4,3.8-9.1,5c-3.7,1.2-8.1,1.8-13.3,1.8h-38.9
				c-4.8,0-7.3-2.4-7.3-7.1V87.6c0-4.7,2.4-7.1,7.3-7.1H488.6z M457.8,117.5H489c9,0,13.5-3.5,13.5-10.5c0-3.5-1.1-6.2-3.2-8.3
				c-2.1-2.1-5.5-3.1-10.2-3.1h-29.6c-1.1,0-1.7,0.5-1.7,1.6V117.5z M457.8,151.4c0,1,0.6,1.4,1.7,1.4h29.8c4.7,0,8.1-1,10.2-3
				c2.2-2,3.2-4.8,3.2-8.4c0-7.5-4.5-11.3-13.5-11.3h-31.5V151.4z"/>
			<path class="st0" d="M549.1,69.9V168h-13.7V69.9H549.1z"/>
			<path class="st0" d="M582.3,99.6v41c0,4.1,1.4,7.4,4.3,10.1c2.9,2.7,7.1,4,12.5,4h11.1c5.4,0,9.6-1.3,12.4-4
				c2.9-2.7,4.3-6,4.3-10.1v-41h13.5V141c0,4-0.6,7.6-1.9,10.9c-1.3,3.3-3.1,6.1-5.6,8.5c-2.5,2.4-5.6,4.2-9.3,5.6
				c-3.7,1.3-8,2-12.9,2h-12.7c-4.9,0-9.2-0.7-12.9-2c-3.7-1.3-6.8-3.2-9.3-5.6c-2.5-2.4-4.4-5.2-5.6-8.5c-1.3-3.3-1.9-6.9-1.9-10.9
				V99.6H582.3z"/>
		</g>
	</g>
</g>
</svg>
