<?xml version="1.0" encoding="utf-8"?>
<!-- Generator: Adobe Illustrator 19.2.0, SVG Export Plug-In . SVG Version: 6.00 Build 0)  -->
<svg version="1.1" id="Layer_1" xmlns="http://www.w3.org/2000/svg" xmlns:xlink="http://www.w3.org/1999/xlink" x="0px" y="0px"
	 viewBox="0 0 1005.8 696.6" style="enable-background:new 0 0 1005.8 696.6;" xml:space="preserve">
<style type="text/css">
	.st0{fill:#FFFFFF;}
	.st1{fill:url(#SVGID_1_);}
	.st2{fill:url(#SVGID_2_);}
	.st3{fill:url(#SVGID_3_);}
	.st4{fill:url(#SVGID_4_);}
	.st5{fill:url(#SVGID_5_);}
	.st6{fill:url(#SVGID_6_);}
	.st7{fill:url(#SVGID_7_);}
	.st8{fill:url(#SVGID_8_);}
	.st9{fill:url(#SVGID_9_);}
	.st10{fill:url(#SVGID_10_);}
	.st11{fill:url(#SVGID_11_);}
	.st12{fill:url(#SVGID_12_);}
	.st13{fill:url(#SVGID_13_);}
	.st14{fill:url(#SVGID_14_);}
	.st15{fill:url(#SVGID_15_);}
	.st16{fill:url(#SVGID_16_);}
	.st17{fill:url(#SVGID_17_);}
	.st18{fill:url(#SVGID_18_);}
	.st19{fill:url(#SVGID_19_);}
	.st20{fill:url(#SVGID_20_);}
	.st21{fill:url(#SVGID_21_);}
	.st22{fill:url(#SVGID_22_);}
	.st23{fill:url(#SVGID_23_);}
	.st24{fill:url(#SVGID_24_);}
	.st25{fill:url(#SVGID_25_);}
	.st26{fill:url(#SVGID_26_);}
	.st27{fill:url(#SVGID_27_);}
	.st28{fill:url(#SVGID_28_);}
	.st29{fill:url(#SVGID_29_);}
	.st30{fill:url(#SVGID_30_);}
	.st31{fill:url(#SVGID_31_);}
	.st32{fill:url(#SVGID_32_);}
	.st33{fill:url(#SVGID_33_);}
	.st34{fill:url(#SVGID_34_);}
	.st35{fill:url(#SVGID_35_);}
	.st36{fill:url(#SVGID_36_);}
	.st37{fill:url(#SVGID_37_);}
	.st38{fill:url(#SVGID_38_);}
	.st39{fill:url(#SVGID_39_);}
	.st40{fill:url(#SVGID_40_);}
	.st41{fill:url(#SVGID_41_);}
	.st42{fill:url(#SVGID_42_);}
	.st43{fill:url(#SVGID_43_);}
	.st44{fill:url(#SVGID_44_);}
	.st45{fill:url(#SVGID_45_);}
	.st46{fill:url(#SVGID_46_);}
	.st47{fill:url(#SVGID_47_);}
	.st48{fill:url(#SVGID_48_);}
	.st49{fill:url(#SVGID_49_);}
	.st50{fill:url(#SVGID_50_);}
	.st51{fill:url(#SVGID_51_);}
	.st52{fill:url(#SVGID_52_);}
	.st53{fill:url(#SVGID_53_);}
	.st54{fill:url(#SVGID_54_);}
	.st55{fill:url(#SVGID_55_);}
	.st56{fill:url(#SVGID_56_);}
	.st57{fill:url(#SVGID_57_);}
	.st58{fill:url(#SVGID_58_);}
	.st59{fill:url(#SVGID_59_);}
	.st60{fill:url(#SVGID_60_);}
	.st61{fill:url(#SVGID_61_);}
	.st62{fill:url(#SVGID_62_);}
	.st63{fill:url(#SVGID_63_);}
	.st64{fill:url(#SVGID_64_);}
	.st65{fill:url(#SVGID_65_);}
	.st66{fill:url(#SVGID_66_);}
	.st67{fill:url(#SVGID_67_);}
	.st68{fill:url(#SVGID_68_);}
	.st69{fill:url(#SVGID_69_);}
	.st70{fill:url(#SVGID_70_);}
	.st71{fill:url(#SVGID_71_);}
	.st72{fill:url(#SVGID_72_);}
	.st73{fill:url(#SVGID_73_);}
	.st74{fill:url(#SVGID_74_);}
	.st75{fill:url(#SVGID_75_);}
	.st76{fill:url(#SVGID_76_);}
	.st77{fill:url(#SVGID_77_);}
	.st78{fill:url(#SVGID_78_);}
	.st79{fill:url(#SVGID_79_);}
	.st80{fill:url(#SVGID_80_);}
	.st81{fill:url(#SVGID_81_);}
	.st82{fill:url(#SVGID_82_);}
	.st83{fill:url(#SVGID_83_);}
	.st84{fill:url(#SVGID_84_);}
	.st85{fill:url(#SVGID_85_);}
	.st86{fill:url(#SVGID_86_);}
	.st87{fill:url(#SVGID_87_);}
	.st88{fill:url(#SVGID_88_);}
	.st89{fill:url(#SVGID_89_);}
	.st90{fill:url(#SVGID_90_);}
	.st91{fill:url(#SVGID_91_);}
	.st92{fill:url(#SVGID_92_);}
	.st93{fill:url(#SVGID_93_);}
	.st94{fill:url(#SVGID_94_);}
	.st95{fill:url(#SVGID_95_);}
	.st96{fill:url(#SVGID_96_);}
	.st97{fill:url(#SVGID_97_);}
	.st98{fill:url(#SVGID_98_);}
	.st99{fill:url(#SVGID_99_);}
	.st100{fill:url(#SVGID_100_);}
	.st101{fill:url(#SVGID_101_);}
	.st102{fill:url(#SVGID_102_);}
	.st103{fill:url(#SVGID_103_);}
	.st104{fill:url(#SVGID_104_);}
	.st105{fill:url(#SVGID_105_);}
	.st106{fill:url(#SVGID_106_);}
	.st107{fill:url(#SVGID_107_);}
	.st108{fill:url(#SVGID_108_);}
	.st109{fill:url(#SVGID_109_);}
	.st110{fill:url(#SVGID_110_);}
	.st111{fill:url(#SVGID_111_);}
	.st112{fill:url(#SVGID_112_);}
	.st113{fill:url(#SVGID_113_);}
	.st114{fill:url(#SVGID_114_);}
	.st115{fill:url(#SVGID_115_);}
	.st116{fill:url(#SVGID_116_);}
	.st117{fill:url(#SVGID_117_);}
	.st118{fill:url(#SVGID_118_);}
	.st119{fill:url(#SVGID_119_);}
	.st120{fill:url(#SVGID_120_);}
	.st121{fill:url(#SVGID_121_);}
	.st122{fill:url(#SVGID_122_);}
	.st123{fill:url(#SVGID_123_);}
	.st124{fill:url(#SVGID_124_);}
	.st125{fill:url(#SVGID_125_);}
	.st126{fill:url(#SVGID_126_);}
	.st127{fill:url(#SVGID_127_);}
	.st128{fill:url(#SVGID_128_);}
	.st129{fill:url(#SVGID_129_);}
	.st130{fill:url(#SVGID_130_);}
	.st131{fill:url(#SVGID_131_);}
	.st132{fill:url(#SVGID_132_);}
	.st133{fill:url(#SVGID_133_);}
	.st134{fill:url(#SVGID_134_);}
	.st135{fill:url(#SVGID_135_);}
	.st136{fill:url(#SVGID_136_);}
	.st137{fill:url(#SVGID_137_);}
	.st138{fill:url(#SVGID_138_);}
	.st139{fill:url(#SVGID_139_);}
	.st140{fill:url(#SVGID_140_);}
	.st141{fill:url(#SVGID_141_);}
	.st142{fill:url(#SVGID_142_);}
	.st143{fill:url(#SVGID_143_);}
	.st144{fill:url(#SVGID_144_);}
	.st145{fill:url(#SVGID_145_);}
	.st146{fill:url(#SVGID_146_);}
	.st147{fill:url(#SVGID_147_);}
	.st148{fill:url(#SVGID_148_);}
	.st149{fill:url(#SVGID_149_);}
	.st150{fill:url(#SVGID_150_);}
	.st151{fill:url(#SVGID_151_);}
	.st152{fill:url(#SVGID_152_);}
	.st153{fill:url(#SVGID_153_);}
	.st154{fill:url(#SVGID_154_);}
	.st155{fill:url(#SVGID_155_);}
	.st156{fill:url(#SVGID_156_);}
	.st157{fill:url(#SVGID_157_);}
	.st158{fill:url(#SVGID_158_);}
	.st159{fill:url(#SVGID_159_);}
	.st160{fill:url(#SVGID_160_);}
	.st161{fill:url(#SVGID_161_);}
	.st162{fill:url(#SVGID_162_);}
	.st163{fill:url(#SVGID_163_);}
	.st164{fill:url(#SVGID_164_);}
	.st165{fill:url(#SVGID_165_);}
	.st166{fill:url(#SVGID_166_);}
	.st167{fill:url(#SVGID_167_);}
	.st168{fill:url(#SVGID_168_);}
	.st169{fill:url(#SVGID_169_);}
	.st170{fill:url(#SVGID_170_);}
	.st171{fill:url(#SVGID_171_);}
	.st172{fill:url(#SVGID_172_);}
	.st173{fill:url(#SVGID_173_);}
	.st174{fill:url(#SVGID_174_);}
	.st175{fill:url(#SVGID_175_);}
	.st176{fill:url(#SVGID_176_);}
	.st177{fill:url(#SVGID_177_);}
	.st178{fill:url(#SVGID_178_);}
	.st179{fill:url(#SVGID_179_);}
</style>
<linearGradient id="SVGID_1_" gradientUnits="userSpaceOnUse" x1="0" y1="348.301" x2="1005.7585" y2="348.301">
	<stop  offset="0" style="stop-color:#00E39F"/>
	<stop  offset="8.315786e-002" style="stop-color:#01DDA4"/>
	<stop  offset="0.1893" style="stop-color:#05CEB1"/>
	<stop  offset="0.3078" style="stop-color:#0AB3C7"/>
	<stop  offset="0.4345" style="stop-color:#128FE6"/>
	<stop  offset="0.5215" style="stop-color:#1872FF"/>
	<stop  offset="1" style="stop-color:#131AA3"/>
</linearGradient>
<rect class="st1" width="1005.8" height="696.6"/>
<g>
	<g>
		<g>
			<g>
				<path class="st0" d="M195.1,473.3v21.5h-36v101.7h-21.7V494.9h-36v-21.5H195.1z"/>
				<path class="st0" d="M277,500.2c11.4,0,19.7,2.6,24.8,7.8c5.1,5.2,7.7,12.4,7.7,21.8c0,8.9-2.5,15.7-7.5,20.5
					c-5,4.8-13.4,7.2-25.2,7.2H231v6.9c0,3.9,1.1,7.1,3.4,9.6c2.3,2.5,6.1,3.7,11.4,3.7h58.9v18.8h-58.9c-6.1,0-11.2-0.8-15.4-2.4
					c-4.2-1.6-7.7-3.8-10.4-6.7c-2.7-2.9-4.7-6.2-5.9-10c-1.2-3.8-1.8-8.1-1.8-12.7v-32.9c0-4.5,0.6-8.7,1.8-12.6
					c1.2-3.9,3.2-7.3,5.9-10.1c2.7-2.9,6.2-5.1,10.4-6.7c4.2-1.6,9.3-2.4,15.4-2.4H277z M231,542.3h45.3c5.2,0,8.9-1,11-3.1
					c2.1-2.1,3.2-4.9,3.2-8.4c0-3.6-1.1-6.6-3.3-8.8c-2.2-2.2-5.7-3.3-10.4-3.3h-31c-5.4,0-9.2,1.3-11.4,3.8
					c-2.3,2.6-3.4,5.7-3.4,9.5V542.3z"/>
				<path class="st0" d="M398.8,500.2v18.6h-33.9c-8.3,0-12.4,4.1-12.4,12.4v65.3h-19.3v-68.3c0-9.7,2-16.8,5.9-21.3
					c4-4.5,10.7-6.8,20.2-6.8H398.8z"/>
				<path class="st0" d="M483.3,500.2v18.6h-33.9c-8.3,0-12.4,4.1-12.4,12.4v65.3h-19.3v-68.3c0-9.7,2-16.8,5.9-21.3
					c4-4.5,10.7-6.8,20.2-6.8H483.3z"/>
				<path class="st0" d="M563.9,500.2c6,0,11.1,0.8,15.3,2.4c4.3,1.6,7.8,3.8,10.5,6.7c2.7,2.9,4.7,6.2,5.9,10.1
					c1.2,3.9,1.8,8.1,1.8,12.6v45.3c0,3.5-0.3,6.5-0.8,8.9c-0.5,2.4-1.6,4.4-3,5.9c-1.5,1.5-3.5,2.6-6.1,3.4
					c-2.6,0.7-5.9,1.1-9.9,1.1h-45.1c-11.4,0-19.7-2.6-24.7-7.8c-5.1-5.2-7.6-12.4-7.6-21.5c0-4.4,0.6-8.3,1.7-11.7
					c1.2-3.4,3-6.3,5.6-8.7c2.6-2.4,5.9-4.2,10-5.5c4.1-1.3,9.2-1.9,15.1-1.9h45.8v-7.3c0-3.8-1.1-6.9-3.4-9.5
					c-2.3-2.6-6.1-3.8-11.4-3.8h-57.7v-18.6H563.9z M573.2,577.7c3.5,0,5.3-1.6,5.3-4.9v-18.1h-45.4c-5.1,0-8.7,1-10.8,3
					c-2.1,2-3.1,4.8-3.1,8.3c0,3.5,1,6.4,3.1,8.5c2.1,2.1,5.5,3.2,10.4,3.2H573.2z"/>
				<path class="st0" d="M690.4,473.3c7.3,0,13.5,0.8,18.7,2.5c5.2,1.6,9.4,4,12.8,6.9c3.3,3,5.8,6.5,7.4,10.7
					c1.6,4.1,2.4,8.7,2.4,13.7c0,7.2-1.5,13-4.5,17.3c-3,4.4-7.4,7.7-13.2,10c5.8,2.4,10.3,5.9,13.5,10.5c3.2,4.6,4.7,10.4,4.7,17.6
					c0,5-0.8,9.6-2.4,13.7c-1.6,4.1-4,7.7-7.4,10.7c-3.3,3-7.6,5.3-12.8,7c-5.2,1.7-11.4,2.6-18.7,2.6h-54.8
					c-6.8,0-10.2-3.3-10.2-10V483.4c0-6.7,3.4-10,10.2-10H690.4z M647.1,525.3H691c12.7,0,19-4.9,19-14.8c0-4.9-1.5-8.8-4.5-11.7
					c-3-2.9-7.8-4.4-14.3-4.4h-41.6c-1.6,0-2.4,0.7-2.4,2.2V525.3z M647.1,573.2c0,1.3,0.8,2,2.4,2h42c6.6,0,11.4-1.4,14.4-4.2
					c3-2.8,4.6-6.8,4.6-11.9c0-10.6-6.3-15.9-19-15.9h-44.3V573.2z"/>
				<path class="st0" d="M775.6,458.4v138.2h-19.3V458.4H775.6z"/>
				<path class="st0" d="M822.3,500.2v57.7c0,5.7,2,10.5,6.1,14.2c4.1,3.8,9.9,5.7,17.6,5.7h15.7c7.7,0,13.5-1.9,17.5-5.7
					c4-3.8,6-8.5,6-14.2v-57.7h19v58.4c0,5.6-0.9,10.7-2.6,15.3c-1.8,4.6-4.4,8.6-7.9,12c-3.5,3.4-7.9,6-13,7.8
					c-5.2,1.9-11.2,2.8-18.2,2.8h-17.9c-6.9,0-13-0.9-18.2-2.8c-5.2-1.9-9.5-4.5-13-7.8c-3.5-3.3-6.2-7.3-7.9-12
					c-1.8-4.6-2.6-9.7-2.6-15.3v-58.4H822.3z"/>
			</g>
		</g>
	</g>
	<g>
		<g>
			<path class="st0" d="M408.4,193.1c-4.3,11-18.2,15.9-22.2,8c-3.6-7.4,5-21.1,15.9-21.8C410.1,179.7,410.6,187.6,408.4,193.1"/>
			<path class="st0" d="M393.7,162.3c-3.6,7.8-14,10.9-16.6,4.9c-2.3-5.5,4.6-15.3,12.6-15.2C395.5,152.6,395.5,158.4,393.7,162.3"
				/>
			<path class="st0" d="M449.6,187.1c-2.9,11.5-19.1,16.2-24.4,7c-4.3-7.5,2.8-20.2,14.4-20.8C448.7,173.8,450.9,181.7,449.6,187.1"
				/>
			<path class="st0" d="M431.9,153.9c-4.4,8.9-18.4,9.9-21.2,1.5c-2.2-6.9,5.8-16.1,15.4-14.5C433.6,142.8,434,149.7,431.9,153.9"/>
			<path class="st0" d="M498.9,184.2c-1.1,12.5-19.1,17.5-27.2,7.6c-6.5-8.1-0.8-21.8,12.6-22.4
				C495.3,169.9,499.4,178.4,498.9,184.2"/>
			<path class="st0" d="M475.1,146.5c-1,11-16.8,15.4-23.9,6.6c-5.7-7.1-0.7-19.2,11.1-19.7C471.9,133.9,475.5,141.4,475.1,146.5"/>
			<path class="st0" d="M459.8,111.2c2.4,6.9-9.4,15.9-17.7,13.7c-6.8-1.9-6.1-11,3.4-16.2C453.5,105.1,458.7,108,459.8,111.2"/>
			<path class="st0" d="M513.5,107.4c-0.3,7.8,14.7,13.4,22.5,8.4c6.4-4.1,2.8-13.3-8.6-15.5C518.1,99.1,513.7,103.7,513.5,107.4"/>
			<path class="st0" d="M502.6,109.9c-1.1,8.1-17.5,11.2-24.6,4.7c-5.9-5.3-0.6-14.1,11.6-14.4C499.4,100.5,503.1,106.1,502.6,109.9
				"/>
			<path class="st0" d="M554.7,134c10,4.5,9.6,18.4-0.6,20.9c-8.3,2-18.1-6-15.3-15.4C542,132.1,550.1,131.8,554.7,134"/>
			<path class="st0" d="M544.4,183.6c1,11.5-13.5,16.7-23.2,8.3c-9-7.8-5.5-21.6,5.8-22.7c0.4,0,0.9-0.1,1.3-0.1
				C538.6,169.6,544,177.9,544.4,183.6"/>
			<path class="st0" d="M522.1,143.1c1.1,10.9-14.4,15.8-24.7,7.9c-9.6-7.4-5.8-20.5,6.2-21.5c0.4,0,1,0,1.4-0.1
				C516,129.9,521.6,137.7,522.1,143.1"/>
			<path class="st0" d="M590.3,184.7c0.9,11.1-13,16.1-22.3,8c-8.6-7.5-5.3-20.8,5.6-21.9c0.4,0,0.9,0,1.3-0.1
				C584.8,171.3,589.9,179.2,590.3,184.7"/>
			<path class="st0" d="M631.4,188.1c0.9,10-11.8,14.6-20.2,7.3c-7.8-6.8-4.8-18.8,5.1-19.8c0.4,0,0.8,0,1.2-0.1
				C626.3,176,630.9,183.2,631.4,188.1"/>
			<path class="st0" d="M338.7,210.5c-5,8.3-12.4,12.6-13.4,7.9c-1.1-5.3,8.1-18.7,14.6-19.3C343.8,199.5,341.2,206.3,338.7,210.5"
				/>
			<path class="st0" d="M369.6,200.5c-5.2,10-16.1,15-18.6,8.4c-2.5-6.7,6.9-21,16.3-21.7C373.8,187.8,372.2,195.7,369.6,200.5"/>
			<path class="st0" d="M600.6,149c3.3,7.6-1.6,12.5-9.4,9.4c-10.2-4-16.2-17.9-9-21c0.9-0.4,1.8-0.4,2.5-0.5
				C592.2,137.4,598.5,144.3,600.6,149"/>
			<path class="st0" d="M637.2,155.6c3,6.8-1.4,11.2-8.4,8.5c-9.1-3.6-14.5-16.1-8.1-18.8c0.8-0.3,1.6-0.4,2.3-0.4
				C629.7,145.2,635.4,151.4,637.2,155.6"/>
			<path class="st0" d="M575.4,114.2c5.4,5,3.2,10.9-4.4,11.1c-9.8,0.3-19.7-9-14.9-14.1c0.6-0.6,1.3-1,1.9-1.3
				C564.3,107.6,572,111,575.4,114.2"/>
			<path class="st0" d="M405.1,286.5c-1.8,12.7-16.1,18.3-23.5,9.2c-7.3-8.9-2.1-25,11.1-25.7C402.8,270.6,406.1,280,405.1,286.5"/>
			<path class="st0" d="M452.1,283.5c-1.8,14.5-19.2,20.1-27.5,8.7c-7.2-9.8-1.6-25.7,12.7-26.5
				C448.9,266.4,452.9,276.5,452.1,283.5"/>
			<path class="st0" d="M497.1,283.5c-1.5,14.6-20.3,20.1-29.7,8.7c-8-9.8-2.5-25.7,13-26.5C492.4,266.4,497.9,275.4,497.1,283.5"/>
			<path class="st0" d="M545.7,281.5c-1,14.3-18.8,19.9-28,8.7c-8.1-9.8-3.2-25.7,11.8-26.5C542.1,264.4,546.1,274.9,545.7,281.5"/>
			<path class="st0" d="M594.7,281.4c-0.5,13.6-15.9,19.6-25.4,9.9c-9.3-9.6-5.5-26.8,9.4-27.6C590.2,264.3,594.9,274.5,594.7,281.4
				"/>
			<path class="st0" d="M326.5,290c-1.8,9.9-9.6,15.5-14.8,10.8c-6.8-6.1-2.9-25,7.6-25.7C326.5,275.6,327.5,284.5,326.5,290"/>
			<path class="st0" d="M361.5,287.8c-1.8,11.1-12.8,16.6-18.9,9.4c-6.6-7.7-2.1-24,9.3-24.7C360.6,273.1,362.4,282.2,361.5,287.8"
				/>
			<path class="st0" d="M636.7,279.9c0,11.9-11.9,17.7-20.5,10.1c-9.2-8.2-7-25.5,6.2-26.3C632.2,264.3,636.7,273.5,636.7,279.9"/>
			<path class="st0" d="M670.9,280.9c0,11-11,16.4-19.1,9.3c-8.6-7.6-6.5-23.7,5.8-24.4C666.8,266.3,670.9,274.9,670.9,280.9"/>
			<path class="st0" d="M361.9,170.8c-6,6.8-12.6,10.3-12.8,7.6c-0.2-4,12.9-17.5,17.5-18C369.4,160.8,362,170.7,361.9,170.8"/>
			<path class="st0" d="M416.8,130.6c-6.3,7.3-15.8,8.7-15.8,3.6c0-5.2,9.9-12.9,16.4-12.6C421.9,122.5,419.4,127.6,416.8,130.6"/>
			<path class="st0" d="M429,334.9c-0.6,13.2-14.8,18.9-23.9,9.6c-9-9.3-5.6-26.7,8.5-27.5C424.8,317.6,429.3,327.9,429,334.9"/>
			<path class="st0" d="M476.1,334.9c-1.2,13.9-18.8,19.3-28,8.5c-8.2-9.5-3.4-25.6,11.5-26.4C472,317.6,476.7,327.9,476.1,334.9"/>
			<path class="st0" d="M526.9,334.9c-1.8,14.6-21.5,19.3-30,7.3c-6.9-9.8-0.9-24.5,14-25.2C523.4,317.6,527.7,327.9,526.9,334.9"/>
			<path class="st0" d="M575,334.7c-2.1,14.1-18.8,19.4-27,8.5c-7.2-9.5-1.4-25.6,12.8-26.4C572.4,317.4,576,327.7,575,334.7"/>
			<path class="st0" d="M621.3,331c-2.4,13.1-17.3,18.9-24.9,9.6c-7.6-9.3-1.8-26.7,12.3-27.5C619.5,313.7,622.5,323.9,621.3,331"/>
			<path class="st0" d="M345.1,334.6c0.6,9.9-7.6,15.2-15.1,9.7c-9.2-6.7-9.4-23.9,2.2-24.7C340.5,320.2,344.7,328.7,345.1,334.6"/>
			<path class="st0" d="M384.2,334.9c0,12.5-10.8,18.5-19,10.6c-9.2-8.8-7.5-27.7,5.2-28.6C379.9,317.6,384.2,327.9,384.2,334.9"/>
			<path class="st0" d="M656.1,329c-2.4,11.2-13.7,16.6-19.8,9.5c-6.8-7.9-1.6-24.7,10.3-25.5C655.4,313.6,657.5,322.7,656.1,329"/>
			<path class="st0" d="M686.8,325.7c-1.9,9.8-11,14.6-15.9,8.4c-5.4-6.9-1.3-21.7,8.3-22.4C686.2,312.2,687.8,320.2,686.8,325.7"/>
			<path class="st0" d="M428.4,236c-2.9,13.4-19.4,18.5-25.6,8c-5.1-8.7,1.9-23.4,14.4-24.1C427.2,220.5,429.8,229.7,428.4,236"/>
			<path class="st0" d="M473.7,231.4c-1.9,13.4-19.7,18.6-27.6,8c-6.5-8.7-0.3-23.4,13.4-24.1C470.8,215.9,474.6,225,473.7,231.4"/>
			<path class="st0" d="M522.7,230.1c-0.6,13.2-18.4,18.4-27.6,8c-7.7-8.7-2.7-23.4,11.7-24.1C518.2,214.6,523,223.7,522.7,230.1"/>
			<path class="st0" d="M570.9,230.1c0.6,12.5-13.9,18.1-23.5,9.1c-9.1-8.5-6.3-24.4,7.3-25.1C565.4,214.6,570.6,223.7,570.9,230.1"
				/>
			<path class="st0" d="M616.6,231.4c1.7,11.2-9.1,17.4-19.2,10.9c-12.1-7.7-11.8-25.5,0.6-26.9c0.4,0,0.9,0,1.4-0.1
				C609.6,215.9,615.6,225.1,616.6,231.4"/>
			<path class="st0" d="M345.7,244.8c-4.1,10.4-14.5,15.5-17.9,8.7c-3.6-7,4-22,13.6-22.6C348.3,231.4,347.7,239.7,345.7,244.8"/>
			<path class="st0" d="M384.7,239.1c-3.5,11.1-16.7,16.1-21.5,8.1c-4.5-7.6,2.8-21.7,13.9-22.4
				C385.3,225.3,386.5,233.5,384.7,239.1"/>
			<path class="st0" d="M655.1,235.4c2.5,10.1-4.4,15.9-13,11c-11.2-6.4-13.9-24.6-3.8-26c0.3,0,0.7,0,1.1-0.1
				C647.8,220.8,653.7,229.4,655.1,235.4"/>
			<path class="st0" d="M574.1,429.3c-4.4,11.3-19,14.8-23.4,5.6c-3.7-7.8,2.9-19.2,14.5-19.8C574.9,415.6,576.3,423.7,574.1,429.3"
				/>
			<path class="st0" d="M408.3,385c1.1,11.3-9,16.7-18.1,9.6c-10.7-8.3-10.1-24.6,0.9-25.9c0.4-0.1,0.9-0.1,1.3-0.1
				C402.4,369.2,407.7,378.6,408.3,385"/>
			<path class="st0" d="M502.9,386.5c-1.6,13.2-19.6,17.4-27.9,6.6c-6.9-9-2.1-22.2,12.1-22.9C499.3,370.7,503.7,380,502.9,386.5"/>
			<path class="st0" d="M551.6,385c-2.9,13.4-20.2,17.5-27.3,6.6c-5.7-8.9,0.6-22.2,14-22.9C549.8,369.3,553,378.6,551.6,385"/>
			<path class="st0" d="M595.5,382.8c-3.8,12.7-18.7,17.4-24.6,7.7c-5.2-8.7,1.7-23.3,14.3-24C595.5,367.1,597.4,376.4,595.5,382.8"
				/>
			<path class="st0" d="M367,382.5c2,8.6-4,13.4-11.7,9.4c-10.4-5.4-13.9-20.7-5.3-23c0.6-0.2,1.4-0.2,2-0.3
				C360.3,369.2,365.8,377.1,367,382.5"/>
			<path class="st0" d="M665.2,191c4.3,6.8,2.6,11.6-3.6,10.2c-10.1-2.3-21.5-18.4-15.5-21.9c0.7-0.4,1.5-0.4,2.1-0.5
				C654.8,179.2,662.1,186.2,665.2,191"/>
			<path class="st0" d="M697.4,282.1c0.3,8.8-5.4,14-10.6,9.7c-6.9-5.5-7.2-22.5,1.5-23.2C694.2,269,697.2,276.7,697.4,282.1"/>
			<path class="st0" d="M686.7,231.7c3.4,8.1-0.1,15-6.6,12.8c-8.4-2.8-14.6-18.6-6.7-22.3C679.2,220.7,684.7,226.8,686.7,231.7"/>
			<path class="st0" d="M683.2,366.6c-4.2,7.7-11,10.7-12.9,5.8c-2.6-6.7,5.8-21.9,12.9-20.3C687.6,354.1,685.8,361.8,683.2,366.6"
				/>
			<path class="st0" d="M659.2,373.7c-4.4,7.7-13.1,10.5-16.6,5.3c-4.6-7,4.2-22.3,14.1-20.3C663.1,361,662,368.8,659.2,373.7"/>
			<path class="st0" d="M660.1,407c-5.1,6-11.6,7.4-12.3,2.7c-1-6.3,9.1-18.1,15.1-15.4C666.3,396.9,663.4,403.3,660.1,407"/>
			
				<rect x="452" y="108.4" transform="matrix(0.9887 -0.1498 0.1498 0.9887 -11.395 71.4395)" class="st0" width="33.3" height="5.9"/>
			<polygon class="st0" points="464.1,146.6 459.6,142.7 486.1,107.2 492,109.1 			"/>
			<polygon class="st0" points="459.5,148.1 445.1,117.5 449.9,114 464.3,144.7 			"/>
			
				<rect x="363.6" y="202.4" transform="matrix(0.9564 -0.292 0.292 0.9564 -48.4354 116.6394)" class="st0" width="5.9" height="36.4"/>
			
				<rect x="378.2" y="233.4" transform="matrix(0.9957 -9.254514e-002 9.254514e-002 0.9957 -20.1808 37.6152)" class="st0" width="34.5" height="5.9"/>
			
				<rect x="340.7" y="260.6" transform="matrix(0.3915 -0.9202 0.9202 0.3915 -22.9739 492.3371)" class="st0" width="40.3" height="5.9"/>
			<polygon class="st0" points="331.8,335 312,288.8 317.6,286.8 337.3,333.1 			"/>
			
				<rect x="540.5" y="179.9" transform="matrix(0.8431 -0.5378 0.5378 0.8431 -24.5906 324.324)" class="st0" width="5.9" height="48.8"/>
			
				<rect x="515.5" y="254.4" transform="matrix(0.4295 -0.9031 0.9031 0.4295 75.9353 634.9436)" class="st0" width="50" height="5.9"/>
			
				<rect x="576.8" y="112.4" transform="matrix(0.7574 -0.653 0.653 0.7574 52.9734 411.1851)" class="st0" width="5.9" height="43.9"/>
			<polygon class="st0" points="643,235.8 617.8,189.5 622.3,185.6 647.5,231.9 			"/>
			
				<rect x="646.6" y="230.9" transform="matrix(0.9998 -2.170349e-002 2.170349e-002 0.9998 -4.9194 14.4397)" class="st0" width="32.3" height="5.9"/>
			
				<rect x="649.8" y="254.1" transform="matrix(0.3181 -0.9481 0.9481 0.3181 213.0035 810.3605)" class="st0" width="40" height="5.9"/>
			<rect x="663.5" y="278" class="st0" width="24" height="5.9"/>
			<rect x="533.4" y="275.6" class="st0" width="47.2" height="5.9"/>
			
				<rect x="549" y="304.8" transform="matrix(0.4545 -0.8907 0.8907 0.4545 38.3337 678.2009)" class="st0" width="47.8" height="5.9"/>
			
				<rect x="496.6" y="283.3" transform="matrix(0.8696 -0.4938 0.4938 0.8696 -86.8415 286.7896)" class="st0" width="5.9" height="48.9"/>
			
				<rect x="380.7" y="357.1" transform="matrix(0.4193 -0.9078 0.9078 0.4193 -91.03 577.8301)" class="st0" width="51" height="5.9"/>
			<polygon class="st0" points="413.1,335.9 412.8,330 458.6,330.1 458.9,336.1 			"/>
			<rect x="469.8" y="331.1" class="st0" width="33.3" height="5.9"/>
			
				<rect x="654.6" y="363.1" transform="matrix(0.9777 -0.2098 0.2098 0.9777 -61.9623 148.1565)" class="st0" width="25.2" height="5.9"/>
			
				<rect x="650.8" y="374.7" transform="matrix(0.9869 -0.1613 0.1613 0.9869 -54.1962 110.5614)" class="st0" width="5.9" height="28.7"/>
		</g>
	</g>
</g>
</svg>
